<?xml version="1.0" encoding="utf-8"?>
<!-- Generator: Adobe Illustrator 15.1.0, SVG Export Plug-In . SVG Version: 6.00 Build 0)  -->
<!DOCTYPE svg PUBLIC "-//W3C//DTD SVG 1.1//EN" "http://www.w3.org/Graphics/SVG/1.1/DTD/svg11.dtd">
<svg version="1.1" id="Capa_1" xmlns="http://www.w3.org/2000/svg" xmlns:xlink="http://www.w3.org/1999/xlink" x="0px" y="0px"
	 width="1000px" height="1000px" viewBox="0 0 1000 1000" enable-background="new 0 0 1000 1000" xml:space="preserve">
<g>
	<g>
		<path fill="#E7531F" d="M663.564,162.24c179.018,0,324.141,145.117,324.141,324.126c0,179.017-145.123,324.126-324.141,324.126
			c-179.009,0-324.124-145.109-324.124-324.126C339.441,307.356,484.555,162.24,663.564,162.24z"/>
		<path fill="#010202" d="M347.857,511.703c41.939-40.044,110.836-52.737,160.393-29.62
			c-43.982,62.719-76.375,134.073-94.431,210.903c5.447,6.586,11.197,12.875,17.15,19.01c1.621-1.529,2.92-3.467,3.419-5.811
			c17.039-77.379,49.317-149.068,93.49-211.796c29.583,22.95,44.086,60.747,40.801,109.229l-0.043,0.631l0.016,0.632
			c2.92,70.188,43.37,134.423,108.223,171.772c20.416,11.766,41.771,19.951,63.254,24.641c19.207-4.646,37.713-11.023,55.418-18.883
			c-35.297,2.707-72.674-5.955-107.102-25.809c-57.763-33.275-93.847-90.098-96.626-152.059
			c4.534-70.217-23.226-108.512-50.069-129.033c17.213-22.513,36.043-43.736,56.246-63.533
			c82.812,77.02,160.709,159.515,232.426,246.734l49.916,60.727l17.873-14.688l-49.9-60.754
			c-72.057-87.626-150.234-170.514-233.381-247.934c16.104-14.582,32.981-28.271,50.629-41.02
			c27.674,34.981,72.154,52.105,127.754,48.44c52.316,2.386,101.402,30.854,134.791,78.184
			c25.934,36.809,39.145,80.601,37.826,121.443c7.217-18.659,12.732-38.133,16.412-58.282
			c-6.865-26.732-18.729-52.954-35.326-76.506c-37.686-53.439-93.58-85.514-153.352-88.006l-0.646-0.029l-0.615,0.056
			c-47.121,3.167-84.439-10.551-107.607-38.659c59.531-39.553,126.602-68.637,198.59-84.511c2.357-0.513,4.24-1.867,5.785-3.489
			c-6.121-5.925-12.412-11.675-18.984-17.101c-71.637,16.827-138.496,46.201-198.057,85.738
			c-22.533-45.231-14.657-108.807,19.322-152.444l4.689-6.051c-10.672-1.082-21.539-1.629-32.548-1.629v7.118
			c-32.124,50.826-36.897,117.02-10.726,166.345c-19.208,13.836-37.572,28.755-55.013,44.657
			c-37.853-34.589-76.561-68.203-116.388-100.412l-38.38-31.071c-5.692,5.292-11.183,10.783-16.476,16.462l40.288,32.623
			c39.019,31.564,76.985,64.467,114.108,98.361c-21.187,20.815-40.886,43.132-58.872,66.812c-1.319-0.681-2.682-1.369-3.945-1.959
			c-54.884-25.708-127.088-14.939-176.531,25.189h-2.185c0,10.768,0.555,21.396,1.567,31.879L347.857,511.703z"/>
	</g>
	<g>
		<path fill="#FAB435" d="M300.309,329.048c16.119-36.217,61.575-51.38,96.928-49.843c54.52,2.099,85.725-5.497,104.013-25.406
			c18.513-20.142,24.605-55.411,18.794-107.404c-0.226-0.259-0.407-0.54-0.647-0.8c-11.668-13.128-21.86-21.868-21.86-21.868
			c-27.386-22.17-60.656-36.105-97.666-38.808c-25.314,74.463-56.562,118.818-95.167,135.224
			c-11.801,5.013-23.448,7.027-34.645,7.027c-19.124,0-36.941-5.897-52.323-12.622c-3.839,14.35-6.079,29.331-6.079,44.831
			c0,70.891,42.803,132.185,103.773,159.634C289.469,377.846,291.751,348.214,300.309,329.048z"/>
		<path fill="#FAB435" d="M297.228,202.516c31.949-13.57,59.629-53.214,82.46-117.828c-70.996,2.85-131.343,48.37-155.998,111.573
			C245.368,205.99,271.182,213.558,297.228,202.516z"/>
		<path fill="#FAB435" d="M541.328,177.945c0.562,40.324-7.863,69.115-25.974,88.807c-28.286,30.784-75.961,33.24-118.861,31.577
			c-29.056-1.096-66.193,10.453-78.718,38.513c-10.854,24.325-0.835,56.071,28.854,92.709c12.883,3.047,26.257,4.844,40.044,4.844
			c96.268,0,175.028-78.774,175.028-175.036C561.715,229.733,554.218,202.2,541.328,177.945z"/>
		<path fill="#FFFFFF" d="M304.724,220.129c38.612-16.42,69.844-60.775,95.16-135.225c-4.338-0.316-8.726-0.575-13.199-0.575
			c-2.358,0-4.64,0.259-6.985,0.344c-22.83,64.628-50.524,104.251-82.453,117.828c-26.052,11.043-51.865,3.461-73.531-6.269
			c-2.33,5.939-4.295,12.033-5.953,18.273c15.368,6.74,33.199,12.623,52.323,12.623C281.27,227.157,292.903,225.142,304.724,220.129
			z"/>
		<path fill="#FFFFFF" d="M317.79,336.841c12.51-28.074,49.66-39.608,78.718-38.513c42.886,1.663,90.575-0.793,118.86-31.577
			c18.11-19.714,26.536-48.482,25.974-88.807c-6.008-11.261-13.071-21.868-21.271-31.55c5.813,51.993-0.281,87.262-18.791,107.404
			c-18.29,19.909-49.494,27.491-104.014,25.406c-35.354-1.523-80.81,13.641-96.928,49.843c-8.558,19.166-10.84,48.798,15.135,89.937
			c9.942,4.464,20.387,8.003,31.205,10.551C316.954,392.926,306.937,361.167,317.79,336.841z"/>
	</g>
	<g>
		<g>
			<path fill="#FFFFFF" d="M309.365,399.343c-2.633,1.895-4.184,4.928-4.184,8.178v91.453c0,3.237,1.537,6.291,4.184,8.172
				l101.408,73.305c1.735,1.264,3.819,1.91,5.903,1.91c1.025,0,2.086-0.168,3.111-0.478l86.174-27.898
				c3.068-0.997,5.51-3.412,6.5-6.501l24.262-75.292c0.393-1.194,0.366-2.443,0.309-3.679
				c-37.796-55.973-94.865-97.813-161.633-116.186c-0.948,0.316-1.868,0.765-2.704,1.37L309.365,399.343z"/>
			<path fill="#FFFFFF" d="M84.541,546.15c0.982,3.076,3.397,5.477,6.458,6.473l87.76,28.559c1.032,0.338,2.099,0.506,3.117,0.506
				c2.114,0,4.212-0.675,5.953-1.938l99.75-72.618c2.606-1.903,4.143-4.936,4.143-8.158v-91.453c0-3.222-1.537-6.255-4.143-8.15
				l-62.6-45.66c-0.758-0.562-1.622-0.955-2.498-1.271c-67.115,18.576-124.336,60.873-162.049,117.379
				c0,1.025-0.084,2.057,0.26,3.047L84.541,546.15z"/>
			<path fill="#FFFFFF" d="M155.024,805.449c3.229,0,6.269-1.545,8.15-4.154l55.902-76.928c1.896-2.641,2.429-5.98,1.432-9.07
				L183.33,601.104c-0.977-3.073-3.391-5.489-6.452-6.472l-89.706-29.162c-1.018-0.324-2.084-0.491-3.117-0.491
				c-2.099,0-4.197,0.646-5.939,1.937l-63.42,46.109c-0.863,0.646-1.454,1.53-2.071,2.387c-0.197,4.451-0.33,8.902-0.33,13.424
				c0,66.186,22.458,127.051,60.129,175.59c1.046,0.379,2.098,0.787,3.264,0.787L155.024,805.449z"/>
			<path fill="#FFFFFF" d="M585.696,617.477c-0.632-0.885-1.208-1.756-2.063-2.387l-64.375-46.867
				c-1.742-1.264-3.834-1.952-5.934-1.952c-1.053,0-2.098,0.183-3.117,0.505l-89.198,28.994c-3.083,0.997-5.497,3.384-6.474,6.473
				l-37.77,116.031c-0.974,3.088-0.442,6.43,1.455,9.041l54.807,75.455c1.882,2.625,4.915,4.156,8.122,4.156l79.961,0.139
				c1.151,0,2.189-0.391,3.272-0.783c38.512-48.82,61.566-110.445,61.566-177.46C585.978,625.016,585.838,621.225,585.696,617.477z"
				/>
			<path fill="#FFFFFF" d="M423.318,819.408c1.011-3.09,0.477-6.447-1.417-9.072l-56.738-78.107
				c-1.91-2.611-4.942-4.156-8.165-4.156H238.166c-3.237,0-6.282,1.545-8.165,4.156l-56.112,77.252
				c-1.903,2.625-2.43,5.982-1.439,9.043l24.843,76.338c0.344,1.066,1.033,1.951,1.714,2.809c31.17,11.625,64.895,18,100.137,18
				c34.258,0,67.1-6.023,97.532-17.061c0.695-0.869,1.396-1.77,1.755-2.836L423.318,819.408z"/>
		</g>
		<path fill="#233977" d="M441.177,806.926c-3.223,0-6.255-1.531-8.122-4.156l-54.807-75.455c-1.896-2.611-2.43-5.953-1.455-9.041
			l37.77-116.031c0.977-3.089,3.397-5.476,6.474-6.473l89.197-28.994c1.005-0.322,2.065-0.505,3.118-0.505
			c2.1,0,4.192,0.688,5.932,1.952l64.376,46.867c0.857,0.631,1.447,1.502,2.064,2.387c-2.162-55.066-19.741-106.146-48.693-148.977
			c0.07,1.235,0.1,2.485-0.309,3.679l-24.262,75.292c-0.99,3.074-3.432,5.518-6.5,6.5l-86.174,27.885
			c-1.024,0.322-2.085,0.506-3.111,0.506c-2.099,0-4.168-0.646-5.903-1.924l-101.408-73.306c-2.647-1.903-4.184-4.936-4.184-8.171
			v-91.453c0-3.251,1.551-6.298,4.184-8.179l63.315-45.667c0.835-0.604,1.741-1.046,2.702-1.363
			c-24.283-6.675-49.843-10.326-76.239-10.326c-26.571,0-52.252,3.686-76.661,10.454c0.876,0.316,1.74,0.709,2.498,1.271
			l62.6,45.659c2.606,1.896,4.143,4.928,4.143,8.151v91.453c0,3.236-1.537,6.254-4.143,8.158l-99.75,72.616
			c-1.741,1.266-3.839,1.953-5.953,1.953c-1.019,0-2.085-0.184-3.117-0.506L91,552.609c-3.061-0.996-5.477-3.398-6.458-6.473
			l-23.862-73.285c-0.33-0.991-0.259-2.029-0.259-3.046c-28.053,42.044-45.302,91.888-47.794,145.606
			c0.618-0.871,1.208-1.769,2.071-2.387l63.42-46.137c1.742-1.264,3.84-1.909,5.939-1.909c1.033,0,2.1,0.14,3.117,0.477
			l89.706,29.148c3.061,0.983,5.475,3.397,6.452,6.458l37.179,114.205c0.997,3.09,0.463,6.432-1.432,9.07l-55.902,76.93
			c-1.896,2.611-4.935,4.156-8.15,4.156l-79.364-0.24c-1.151-0.027-2.204-0.42-3.264-0.801
			c32.419,41.828,76.114,74.43,126.59,93.244c-0.674-0.885-1.362-1.74-1.707-2.807l-24.83-76.297
			c-0.99-3.061-0.463-6.418,1.439-9.043l56.098-77.252c1.897-2.611,4.942-4.156,8.165-4.156h118.832
			c3.238,0,6.271,1.545,8.165,4.156l56.738,78.107c1.896,2.625,2.43,5.982,1.418,9.072l-24.873,76.365
			c-0.359,1.096-1.061,1.994-1.755,2.865c50.813-18.365,94.893-50.688,127.734-92.346c-1.068,0.381-2.092,0.771-3.271,0.771
			L441.177,806.926z"/>
	</g>
</g>
</svg>
